<svg xmlns="http://www.w3.org/2000/svg" version="1.1" xmlns:xlink="http://www.w3.org/1999/xlink" xmlns:svgjs="http://svgjs.com/svgjs" width="1200" height="560" preserveAspectRatio="none" viewBox="0 0 1200 560"><g mask="url(&quot;#SvgjsMask1115&quot;)" fill="none"><path d="M1191.346,660.918C1238.698,662.568,1281.499,631.204,1302.645,588.803C1321.849,550.296,1310.154,505.579,1286.859,469.4C1265.69,436.522,1230.446,416.503,1191.346,415.944C1151.185,415.37,1111.538,432.093,1090.98,466.598C1069.969,501.864,1073.879,545.015,1092.717,581.488C1113.479,621.686,1146.13,659.342,1191.346,660.918" fill="rgba(48, 48, 47, 1)" class="triangle-float2" data-darkreader-inline-fill="" style="--darkreader-inline-fill:#414240;"></path><path d="M96.13246347014442 149.69793122471233L-32.338602142069874 165.47219460463631 111.9067268500684 278.1689968369266z" fill="rgba(48, 48, 47, 1)" class="triangle-float3" data-darkreader-inline-fill="" style="--darkreader-inline-fill:#414240;"></path><path d="M1119.2333906399779 243.82440548666136L1171.1946971087452 276.293433384162 1193.9175857206124 182.1169597322606z" fill="rgba(48, 48, 47, 1)" class="triangle-float2" data-darkreader-inline-fill="" style="--darkreader-inline-fill:#414240;"></path><path d="M361.06 551.8 a165.45 165.45 0 1 0 330.9 0 a165.45 165.45 0 1 0 -330.9 0z" fill="rgba(48, 48, 47, 1)" class="triangle-float2" data-darkreader-inline-fill="" style="--darkreader-inline-fill:#414240;"></path><path d="M954.91 244.92 a156.97 156.97 0 1 0 313.94 0 a156.97 156.97 0 1 0 -313.94 0z" fill="rgba(48, 48, 47, 1)" class="triangle-float2" data-darkreader-inline-fill="" style="--darkreader-inline-fill:#414240;"></path><path d="M728.0193840431066 239.28891316098378L628.1607118289062 260.51452917976803 649.3863278476904 360.3732013939685 749.2450000618908 339.14758537518424z" fill="rgba(48, 48, 47, 1)" class="triangle-float1" data-darkreader-inline-fill="" style="--darkreader-inline-fill:#414240;"></path><path d="M323.3973372724219 384.8563150112854L356.60152862129405 476.0840809735621 476.841081890273 380.66391096911553z" fill="rgba(48, 48, 47, 1)" class="triangle-float2" data-darkreader-inline-fill="" style="--darkreader-inline-fill:#414240;"></path><path d="M475.3970112242512 32.84920338892563L373.11622439423627 78.3875436415758 492.564128188219 209.0395537602731z" fill="rgba(48, 48, 47, 1)" class="triangle-float1" data-darkreader-inline-fill="" style="--darkreader-inline-fill:#414240;"></path><path d="M397.95 371.43 a183.09 183.09 0 1 0 366.18 0 a183.09 183.09 0 1 0 -366.18 0z" fill="rgba(48, 48, 47, 1)" class="triangle-float3" data-darkreader-inline-fill="" style="--darkreader-inline-fill:#414240;"></path><path d="M131.2203715676499 480.4183734825361L28.8483906105819 492.9880722131102 41.418089341156005 595.3600531701782 143.790070298224 582.790354439604z" fill="rgba(48, 48, 47, 1)" class="triangle-float2" data-darkreader-inline-fill="" style="--darkreader-inline-fill:#414240;"></path><path d="M1082.216,701.898C1134.74,704.059,1193.23,694.946,1219.725,649.543C1246.359,603.902,1225.099,548.674,1198.163,503.21C1171.9,458.882,1133.737,416.855,1082.216,417.446C1031.409,418.029,994.866,461.076,970.788,505.819C948.205,547.784,939.454,597.548,963,638.981C986.794,680.851,1034.098,699.918,1082.216,701.898" fill="rgba(48, 48, 47, 1)" class="triangle-float2" data-darkreader-inline-fill="" style="--darkreader-inline-fill:#414240;"></path><path d="M961.3106514916026 286.7835099366458L987.796989084729 172.05857765387302 873.0720568019563 145.57224006074654 846.5857192088298 260.2971723435194z" fill="rgba(48, 48, 47, 1)" class="triangle-float3" data-darkreader-inline-fill="" style="--darkreader-inline-fill:#414240;"></path><path d="M906.6423353084898 625.5690967818476L894.473295851049 449.1274315709062 764.8113325821678 533.3308950666144z" fill="rgba(48, 48, 47, 1)" class="triangle-float3" data-darkreader-inline-fill="" style="--darkreader-inline-fill:#414240;"></path><path d="M120.027,505.209C167.373,505.893,208.954,476.699,233.005,435.911C257.478,394.407,264.375,342.98,240.299,301.245C216.21,259.487,168.227,240.949,120.027,240.066C69.979,239.149,16.256,252.978,-8.127,296.694C-32.074,339.626,-13.174,390.845,12.566,432.726C36.814,472.179,73.723,504.54,120.027,505.209" fill="rgba(48, 48, 47, 1)" class="triangle-float1" data-darkreader-inline-fill="" style="--darkreader-inline-fill:#414240;"></path><path d="M854.68 91.23 a116.58 116.58 0 1 0 233.16 0 a116.58 116.58 0 1 0 -233.16 0z" fill="rgba(48, 48, 47, 1)" class="triangle-float2" data-darkreader-inline-fill="" style="--darkreader-inline-fill:#414240;"></path><path d="M1100.6503770032498 212.5634972302362L1053.1614118547022 110.46916836092589 995.3063438666882 190.09983794725906z" fill="rgba(48, 48, 47, 1)" class="triangle-float3" data-darkreader-inline-fill="" style="--darkreader-inline-fill:#414240;"></path><path d="M1094.3772066349434 45.268514995236316L1024.553739838518 188.42783720033185 1167.7130620436135 258.2513039967573 1237.536528840039 115.09198179166178z" fill="rgba(48, 48, 47, 1)" class="triangle-float2" data-darkreader-inline-fill="" style="--darkreader-inline-fill:#414240;"></path><path d="M236.41900872052193 344.5426855298522L246.94752286013966 224.2012182436588 116.07754143432855 334.0141713902344z" fill="rgba(48, 48, 47, 1)" class="triangle-float2" data-darkreader-inline-fill="" style="--darkreader-inline-fill:#414240;"></path><path d="M13.6 139.73 a159.33 159.33 0 1 0 318.66 0 a159.33 159.33 0 1 0 -318.66 0z" fill="rgba(48, 48, 47, 1)" class="triangle-float1" data-darkreader-inline-fill="" style="--darkreader-inline-fill:#414240;"></path></g><defs><mask id="SvgjsMask1115"><rect width="1200" height="560" fill="#ffffff" data-darkreader-inline-fill="" style="--darkreader-inline-fill:#30302f;"></rect></mask><style>
            @keyframes float1 {
                0%{transform: translate(0, 0)}
                50%{transform: translate(-10px, 0)}
                100%{transform: translate(0, 0)}
            }

            .triangle-float1 {
                animation: float1 5s infinite;
            }

            @keyframes float2 {
                0%{transform: translate(0, 0)}
                50%{transform: translate(-5px, -5px)}
                100%{transform: translate(0, 0)}
            }

            .triangle-float2 {
                animation: float2 4s infinite;
            }

            @keyframes float3 {
                0%{transform: translate(0, 0)}
                50%{transform: translate(0, -10px)}
                100%{transform: translate(0, 0)}
            }

            .triangle-float3 {
                animation: float3 6s infinite;
            }
        </style><style class="darkreader darkreader--sync" media="screen"></style></defs></svg>