<svg xmlns="http://www.w3.org/2000/svg" version="1.1" xmlns:xlink="http://www.w3.org/1999/xlink" xmlns:svgjs="http://svgjs.com/svgjs" width="992" height="560" preserveAspectRatio="none" viewBox="0 0 992 560"><g mask="url(&quot;#SvgjsMask1144&quot;)" fill="none"><path d="M239.4636849471302 193.11688258534946L150.76623366149502 143.95108249693087 121.3662591716847 301.5801594695929z" fill="rgba(48, 48, 47, 1)" class="triangle-float3" data-darkreader-inline-fill="" style="--darkreader-inline-fill:#414240;"></path><path d="M22.228502708496592 365.36090482992967L143.50144299099935 382.4047050840459 160.54524324511556 261.1317648015431 39.2723029626128 244.0879645474269z" fill="rgba(48, 48, 47, 1)" class="triangle-float1" data-darkreader-inline-fill="" style="--darkreader-inline-fill:#414240;"></path><path d="M943.689,274.883C997.859,274.164,1040.49,234.235,1067.431,187.234C1094.197,140.537,1105.438,84.526,1079.983,37.102C1053.246,-12.712,1000.188,-45.35,943.689,-43.308C890.134,-41.373,849.418,-0.507,823.451,46.372C798.432,91.539,790.083,144.901,814.126,190.595C839.84,239.465,888.472,275.616,943.689,274.883" fill="rgba(48, 48, 47, 1)" class="triangle-float1" data-darkreader-inline-fill="" style="--darkreader-inline-fill:#414240;"></path><path d="M826.514,140.062C853.197,139.506,875.916,123.428,890.07,100.802C905.298,76.46,915.049,46.146,900.892,21.166C886.594,-4.063,855.51,-11.78,826.514,-11.338C798.425,-10.91,770.316,-0.773,755.959,23.373C741.314,48.003,743.374,79.028,758.201,103.549C772.519,127.23,798.847,140.638,826.514,140.062" fill="rgba(48, 48, 47, 1)" class="triangle-float2" data-darkreader-inline-fill="" style="--darkreader-inline-fill:#414240;"></path><path d="M715.649,426.207C774.031,426.916,812.399,371.517,839.846,319.985C865.247,272.294,879.002,216.358,852.498,169.271C825.566,121.425,770.54,100.595,715.649,99.34C658.096,98.024,595.143,112.25,567.516,162.756C540.6,211.961,569.082,268.142,596.571,317.03C624.859,367.339,657.936,425.506,715.649,426.207" fill="rgba(48, 48, 47, 1)" class="triangle-float3" data-darkreader-inline-fill="" style="--darkreader-inline-fill:#414240;"></path><path d="M381.65744793578904 51.326621978728454L443.9868272657076 137.115652802618 529.7758580895971 74.78627347269942 467.4464787596786-11.002757351190112z" fill="rgba(48, 48, 47, 1)" class="triangle-float1" data-darkreader-inline-fill="" style="--darkreader-inline-fill:#414240;"></path><path d="M433.08 33.32 a96.64 96.64 0 1 0 193.28 0 a96.64 96.64 0 1 0 -193.28 0z" fill="rgba(48, 48, 47, 1)" class="triangle-float2" data-darkreader-inline-fill="" style="--darkreader-inline-fill:#414240;"></path><path d="M-36.16 489.93 a109.21 109.21 0 1 0 218.42 0 a109.21 109.21 0 1 0 -218.42 0z" fill="rgba(48, 48, 47, 1)" class="triangle-float3" data-darkreader-inline-fill="" style="--darkreader-inline-fill:#414240;"></path><path d="M911.77,593.253C936.821,594.378,962.796,585.04,975.233,563.266C987.591,541.63,981.374,515.209,968.55,493.845C956.158,473.202,935.847,457.508,911.77,457.544C887.748,457.58,866.706,472.881,855.281,494.012C844.406,514.126,846.155,538.107,857.467,557.979C868.912,578.085,888.658,592.215,911.77,593.253" fill="rgba(48, 48, 47, 1)" class="triangle-float3" data-darkreader-inline-fill="" style="--darkreader-inline-fill:#414240;"></path><path d="M796.5442844554693 210.95990232704915L688.207244221216 276.05536338581635 861.6397455142366 319.29694256130244z" fill="rgba(48, 48, 47, 1)" class="triangle-float1" data-darkreader-inline-fill="" style="--darkreader-inline-fill:#414240;"></path><path d="M83.39214036298063 451.16414593058505L173.25616567932204 462.1980608200196 94.42605525241513 361.3001206142436z" fill="rgba(48, 48, 47, 1)" class="triangle-float2" data-darkreader-inline-fill="" style="--darkreader-inline-fill:#414240;"></path><path d="M345.7209350087931-36.86580935189343L210.48273596330955-75.64473890651703 171.70380640868595 59.59346013896652 306.9420054541695 98.37238969359012z" fill="rgba(48, 48, 47, 1)" class="triangle-float2" data-darkreader-inline-fill="" style="--darkreader-inline-fill:#414240;"></path><path d="M656.7075763747837 492.8544966471312L581.8264939928852 363.1566574359323 452.12865478168624 438.03773981783075 527.0097371635848 567.7355790290297z" fill="rgba(48, 48, 47, 1)" class="triangle-float3" data-darkreader-inline-fill="" style="--darkreader-inline-fill:#414240;"></path><path d="M601.96 36.31 a172.7 172.7 0 1 0 345.4 0 a172.7 172.7 0 1 0 -345.4 0z" fill="rgba(48, 48, 47, 1)" class="triangle-float3" data-darkreader-inline-fill="" style="--darkreader-inline-fill:#414240;"></path><path d="M700.36 254.33 a101.38 101.38 0 1 0 202.76 0 a101.38 101.38 0 1 0 -202.76 0z" fill="rgba(48, 48, 47, 1)" class="triangle-float3" data-darkreader-inline-fill="" style="--darkreader-inline-fill:#414240;"></path><path d="M277.68 551.4 a157.28 157.28 0 1 0 314.56 0 a157.28 157.28 0 1 0 -314.56 0z" fill="rgba(48, 48, 47, 1)" class="triangle-float2" data-darkreader-inline-fill="" style="--darkreader-inline-fill:#414240;"></path><path d="M713.7493683407957 492.7967762575135L696.5722685670511 436.6130144845975 620.8851757945495 490.4705450316725z" fill="rgba(48, 48, 47, 1)" class="triangle-float3" data-darkreader-inline-fill="" style="--darkreader-inline-fill:#414240;"></path><path d="M336.869,474.093C361.364,475.619,386.761,467.408,399.842,446.641C413.709,424.626,414.476,395.458,400.032,373.817C386.797,353.987,360.696,351.48,336.869,352.29C314.841,353.039,291.802,358.813,280.729,377.871C269.614,397,275.015,420.449,286.164,439.558C297.209,458.489,314.993,472.73,336.869,474.093" fill="rgba(48, 48, 47, 1)" class="triangle-float1" data-darkreader-inline-fill="" style="--darkreader-inline-fill:#414240;"></path><path d="M583.6031894572761 151.8111794806814L620.4786661007411 280.4112493506186 712.2032593272133 114.93570283721652z" fill="rgba(48, 48, 47, 1)" class="triangle-float3" data-darkreader-inline-fill="" style="--darkreader-inline-fill:#414240;"></path></g><defs><mask id="SvgjsMask1144"><rect width="992" height="560" fill="#ffffff" data-darkreader-inline-fill="" style="--darkreader-inline-fill:#30302f;"></rect></mask><style>
            @keyframes float1 {
                0%{transform: translate(0, 0)}
                50%{transform: translate(-10px, 0)}
                100%{transform: translate(0, 0)}
            }

            .triangle-float1 {
                animation: float1 5s infinite;
            }

            @keyframes float2 {
                0%{transform: translate(0, 0)}
                50%{transform: translate(-5px, -5px)}
                100%{transform: translate(0, 0)}
            }

            .triangle-float2 {
                animation: float2 4s infinite;
            }

            @keyframes float3 {
                0%{transform: translate(0, 0)}
                50%{transform: translate(0, -10px)}
                100%{transform: translate(0, 0)}
            }

            .triangle-float3 {
                animation: float3 6s infinite;
            }
        </style><style class="darkreader darkreader--sync" media="screen"></style></defs></svg>