<svg xmlns="http://www.w3.org/2000/svg" version="1.1" xmlns:xlink="http://www.w3.org/1999/xlink" xmlns:svgjs="http://svgjs.com/svgjs" width="600" height="560" preserveAspectRatio="none" viewBox="0 0 600 560"><g mask="url(&quot;#SvgjsMask1200&quot;)" fill="none"><path d="M40.636778418775904 510.0336284020475L219.33186865421882 458.9778883347781 104.45645350286264 344.1024731834219z" fill="rgba(48, 48, 47, 1)" class="triangle-float2" data-darkreader-inline-fill="" style="--darkreader-inline-fill:#414240;"></path><path d="M586.159,678.265C620.856,676.604,643.584,645.737,660.177,615.219C675.819,586.45,687.108,552.002,669.989,524.086C653.387,497.013,617.858,492.579,586.159,494.518C558.305,496.222,534.091,510.289,518.391,533.359C499.956,560.447,484.877,593.265,498.758,622.946C514.413,656.42,549.247,680.032,586.159,678.265" fill="rgba(48, 48, 47, 1)" class="triangle-float2" data-darkreader-inline-fill="" style="--darkreader-inline-fill:#414240;"></path><path d="M124.243,100.438C146.901,101.555,167.025,86.379,177.887,66.464C188.297,47.377,187.773,23.885,175.948,5.641C165.034,-11.198,144.306,-15.901,124.243,-16.302C103.224,-16.722,79.381,-14.683,68.829,3.5C58.251,21.726,68.579,43.298,79.037,61.593C89.605,80.08,102.975,99.39,124.243,100.438" fill="rgba(48, 48, 47, 1)" class="triangle-float1" data-darkreader-inline-fill="" style="--darkreader-inline-fill:#414240;"></path><path d="M350.97 274.43 a166.87 166.87 0 1 0 333.74 0 a166.87 166.87 0 1 0 -333.74 0z" fill="rgba(48, 48, 47, 1)" class="triangle-float2" data-darkreader-inline-fill="" style="--darkreader-inline-fill:#414240;"></path><path d="M414.588,437.323C458.94,435.14,498.075,410.52,520.424,372.148C542.933,333.502,545.584,286.975,525.399,247.066C502.961,202.704,464.287,164.123,414.588,162.898C363.174,161.631,319.333,196.662,293.895,241.361C268.756,285.534,262.368,340.263,289.021,383.539C314.614,425.093,365.844,439.723,414.588,437.323" fill="rgba(48, 48, 47, 1)" class="triangle-float1" data-darkreader-inline-fill="" style="--darkreader-inline-fill:#414240;"></path><path d="M127.23,333.383C166.847,331.872,195.406,298.158,212.533,262.403C227.255,231.67,222.675,197.364,206.838,167.191C189.528,134.212,164.411,102.069,127.23,99.876C86.907,97.498,49.626,121.707,29.505,156.732C9.459,191.626,10.379,234.157,29.859,269.37C50.011,305.798,85.629,334.97,127.23,333.383" fill="rgba(48, 48, 47, 1)" class="triangle-float3" data-darkreader-inline-fill="" style="--darkreader-inline-fill:#414240;"></path><path d="M163.10804239636582 366.86855928649425L189.1450998313076 428.20802264369064 268.13576614963125 358.48270481267974z" fill="rgba(48, 48, 47, 1)" class="triangle-float1" data-darkreader-inline-fill="" style="--darkreader-inline-fill:#414240;"></path><path d="M391.809,538.408C447.641,538.823,480.032,482.159,507.892,433.772C535.668,385.531,568.441,329.042,539.858,281.275C511.652,234.138,446.538,235.067,391.809,239.776C346.677,243.659,305.131,264.403,282.161,303.446C258.851,343.067,259.238,390.412,278.677,432.068C302.135,482.335,336.34,537.996,391.809,538.408" fill="rgba(48, 48, 47, 1)" class="triangle-float3" data-darkreader-inline-fill="" style="--darkreader-inline-fill:#414240;"></path><path d="M51.33764787731057 413.9162085307816L140.99473493655785 517.0548889672032 244.13341537297947 427.39780190795597 154.4763283137322 324.25912147153434z" fill="rgba(48, 48, 47, 1)" class="triangle-float1" data-darkreader-inline-fill="" style="--darkreader-inline-fill:#414240;"></path><path d="M594.1828420099966 297.1817750354272L546.2112842749051 214.09259972002477 445.56330016934726 327.59452398036336z" fill="rgba(48, 48, 47, 1)" class="triangle-float3" data-darkreader-inline-fill="" style="--darkreader-inline-fill:#414240;"></path><path d="M324.4655051113259 106.01456471853757L396.2193122392491 220.84465985550463 511.04940737621615 149.09085272758145 439.295600248293 34.26075759061439z" fill="rgba(48, 48, 47, 1)" class="triangle-float2" data-darkreader-inline-fill="" style="--darkreader-inline-fill:#414240;"></path><path d="M335.5874002688992 633.7092658322708L383.58179965840037 501.8457372493297 203.7238716859581 585.7148664427697z" fill="rgba(48, 48, 47, 1)" class="triangle-float3" data-darkreader-inline-fill="" style="--darkreader-inline-fill:#414240;"></path><path d="M430.46264727951046 218.6764750992625L537.5495415826886 270.90624325923034 589.7793097426566 163.8193489560522 482.69241543947834 111.58958079608433z" fill="rgba(48, 48, 47, 1)" class="triangle-float3" data-darkreader-inline-fill="" style="--darkreader-inline-fill:#414240;"></path><path d="M465.523846731607 247.442183251566L425.80439564640244 137.98944314849675 359.02801216041746 214.80688505924854z" fill="rgba(48, 48, 47, 1)" class="triangle-float3" data-darkreader-inline-fill="" style="--darkreader-inline-fill:#414240;"></path></g><defs><mask id="SvgjsMask1200"><rect width="600" height="560" fill="#ffffff" data-darkreader-inline-fill="" style="--darkreader-inline-fill:#30302f;"></rect></mask><style>
            @keyframes float1 {
                0%{transform: translate(0, 0)}
                50%{transform: translate(-10px, 0)}
                100%{transform: translate(0, 0)}
            }

            .triangle-float1 {
                animation: float1 5s infinite;
            }

            @keyframes float2 {
                0%{transform: translate(0, 0)}
                50%{transform: translate(-5px, -5px)}
                100%{transform: translate(0, 0)}
            }

            .triangle-float2 {
                animation: float2 4s infinite;
            }

            @keyframes float3 {
                0%{transform: translate(0, 0)}
                50%{transform: translate(0, -10px)}
                100%{transform: translate(0, 0)}
            }

            .triangle-float3 {
                animation: float3 6s infinite;
            }
        </style><style class="darkreader darkreader--sync" media="screen"></style></defs></svg>