<svg xmlns="http://www.w3.org/2000/svg" version="1.1" xmlns:xlink="http://www.w3.org/1999/xlink" xmlns:svgjs="http://svgjs.com/svgjs" width="768" height="560" preserveAspectRatio="none" viewBox="0 0 768 560"><g mask="url(&quot;#SvgjsMask1140&quot;)" fill="none"><path d="M324.84961510972437 193.8010157235043L310.2626914665411 55.015707916343246 171.4773836593801 69.60263155952646 186.06430730256332 208.3879393666875z" fill="rgba(48, 48, 47, 1)" class="triangle-float1" data-darkreader-inline-fill="" style="--darkreader-inline-fill:#414240;"></path><path d="M163.898,520.956C211.324,524,260.149,500.32,280.822,457.528C299.737,418.376,275.665,375.605,251.624,339.373C230.844,308.055,201.481,280.893,163.898,281.31C126.904,281.72,97.917,309.208,79.48,341.283C61.116,373.23,54.7,410.669,70.37,444.02C88.769,483.18,120.72,518.185,163.898,520.956" fill="rgba(48, 48, 47, 1)" class="triangle-float3" data-darkreader-inline-fill="" style="--darkreader-inline-fill:#414240;"></path><path d="M496.24055073039085 510.7798900703101L391.7194232586981 398.69470343316556 279.63423662155355 503.2158309048583 384.1553640932463 615.3010175420029z" fill="rgba(48, 48, 47, 1)" class="triangle-float1" data-darkreader-inline-fill="" style="--darkreader-inline-fill:#414240;"></path><path d="M621.449,181.24C658.733,182.785,696.256,167.657,715.415,135.635C735.038,102.836,732.683,61.282,712.721,28.688C693.609,-2.518,658.041,-18.012,621.449,-17.792C585.273,-17.575,549.655,-1.836,532.056,29.772C514.864,60.649,522.107,97.932,540.07,128.368C557.692,158.227,586.808,179.804,621.449,181.24" fill="rgba(48, 48, 47, 1)" class="triangle-float3" data-darkreader-inline-fill="" style="--darkreader-inline-fill:#414240;"></path><path d="M593.445,569.758C625.272,569.526,659.531,560.054,673.996,531.703C687.649,504.945,669.99,475.688,654.607,449.886C639.766,424.993,622.391,398.026,593.445,396.596C562.644,395.074,536.821,416.903,520.836,443.276C504.138,470.826,494.798,504.952,510.837,532.891C526.927,560.92,561.127,569.993,593.445,569.758" fill="rgba(48, 48, 47, 1)" class="triangle-float1" data-darkreader-inline-fill="" style="--darkreader-inline-fill:#414240;"></path><path d="M493.12361256876693 250.55965614345706L407.4074781426207 352.7121672891051 595.276123714415 336.2757905696033z" fill="rgba(48, 48, 47, 1)" class="triangle-float1" data-darkreader-inline-fill="" style="--darkreader-inline-fill:#414240;"></path><path d="M516.4263012498271 409.99259149649043L544.1250576709671 521.5390037881056 617.6044478282267 453.0183639462657z" fill="rgba(48, 48, 47, 1)" class="triangle-float2" data-darkreader-inline-fill="" style="--darkreader-inline-fill:#414240;"></path><path d="M547.83 333.78 a117.71 117.71 0 1 0 235.42 0 a117.71 117.71 0 1 0 -235.42 0z" fill="rgba(48, 48, 47, 1)" class="triangle-float3" data-darkreader-inline-fill="" style="--darkreader-inline-fill:#414240;"></path><path d="M376.909,357.396C399.388,358.722,422.239,349.783,433.926,330.535C446.015,310.626,445.45,284.905,432.798,265.349C421.074,247.227,398.456,241.145,376.909,242.404C357.654,243.529,340.797,254.496,331.293,271.28C321.935,287.807,321.572,307.65,330.462,324.433C339.987,342.414,356.596,356.198,376.909,357.396" fill="rgba(48, 48, 47, 1)" class="triangle-float3" data-darkreader-inline-fill="" style="--darkreader-inline-fill:#414240;"></path><path d="M243.752332349743 241.03464110754862L315.060051030405 320.22988587821135 398.19905884606806 173.67068547188688z" fill="rgba(48, 48, 47, 1)" class="triangle-float2" data-darkreader-inline-fill="" style="--darkreader-inline-fill:#414240;"></path><path d="M105.413,397.924C123.873,397.798,144.919,398.202,154.753,382.579C165,366.299,158.479,345.667,148.751,329.072C139.16,312.711,124.372,297.929,105.413,298.417C87.04,298.89,75.18,315.418,65.777,331.209C56.056,347.534,45.185,366.928,54.89,383.263C64.49,399.421,86.618,398.053,105.413,397.924" fill="rgba(48, 48, 47, 1)" class="triangle-float1" data-darkreader-inline-fill="" style="--darkreader-inline-fill:#414240;"></path><path d="M161.27090258723004 536.4256325088261L238.68130429313726 407.87076315967863 107.58307321722434 403.29271205150087z" fill="rgba(48, 48, 47, 1)" class="triangle-float2" data-darkreader-inline-fill="" style="--darkreader-inline-fill:#414240;"></path><path d="M180.975,694.215C222.641,693.76,265.426,678.844,285.403,642.277C304.756,606.854,289.281,566.027,270.539,530.277C249.804,490.727,225.473,446.838,180.975,443.087C131.547,438.92,84.294,468.916,60.786,512.595C38.347,554.288,46.388,605.119,72.518,644.604C96.032,680.137,138.369,694.681,180.975,694.215" fill="rgba(48, 48, 47, 1)" class="triangle-float3" data-darkreader-inline-fill="" style="--darkreader-inline-fill:#414240;"></path><path d="M502.389,115.349C533.63,113.843,562.352,97.696,577.463,70.312C592.09,43.806,589.828,11.429,573.964,-14.355C558.85,-38.921,531.231,-51.472,502.389,-51.706C473.086,-51.944,445.304,-39.731,428.774,-15.534C409.636,12.479,397.001,48.642,413.633,78.212C430.484,108.171,468.056,117.004,502.389,115.349" fill="rgba(48, 48, 47, 1)" class="triangle-float2" data-darkreader-inline-fill="" style="--darkreader-inline-fill:#414240;"></path><path d="M769.794,591.106C802.223,588.171,824.159,561.034,839.384,532.251C853.403,505.748,858.297,475.507,845.208,448.533C830.207,417.619,804.154,388.54,769.794,388.843C735.768,389.143,714.216,420.7,696.647,449.841C678.224,480.399,657.92,515.505,674.327,547.191C691.59,580.53,732.404,594.49,769.794,591.106" fill="rgba(48, 48, 47, 1)" class="triangle-float3" data-darkreader-inline-fill="" style="--darkreader-inline-fill:#414240;"></path><path d="M569.69 554.14 a122.17 122.17 0 1 0 244.34 0 a122.17 122.17 0 1 0 -244.34 0z" fill="rgba(48, 48, 47, 1)" class="triangle-float2" data-darkreader-inline-fill="" style="--darkreader-inline-fill:#414240;"></path><path d="M789.868,288.78C840.584,288.313,896.055,281.664,922.61,238.453C950.095,193.728,937.495,137.195,910.803,91.992C884.628,47.664,841.33,12.331,789.868,13.654C740.197,14.931,704.904,55.397,679.247,97.947C652.421,142.436,626.768,195.992,652.822,240.938C678.83,285.804,738.011,289.258,789.868,288.78" fill="rgba(48, 48, 47, 1)" class="triangle-float3" data-darkreader-inline-fill="" style="--darkreader-inline-fill:#414240;"></path><path d="M505.7586804986344 57.06413064483076L387.7907001220251-56.85622379152198 391.8383260622817 175.03211102144007z" fill="rgba(48, 48, 47, 1)" class="triangle-float2" data-darkreader-inline-fill="" style="--darkreader-inline-fill:#414240;"></path><path d="M156.35 457.5 a130.61 130.61 0 1 0 261.22 0 a130.61 130.61 0 1 0 -261.22 0z" fill="rgba(48, 48, 47, 1)" class="triangle-float2" data-darkreader-inline-fill="" style="--darkreader-inline-fill:#414240;"></path></g><defs><mask id="SvgjsMask1140"><rect width="768" height="560" fill="#ffffff" data-darkreader-inline-fill="" style="--darkreader-inline-fill:#30302f;"></rect></mask><style>
            @keyframes float1 {
                0%{transform: translate(0, 0)}
                50%{transform: translate(-10px, 0)}
                100%{transform: translate(0, 0)}
            }

            .triangle-float1 {
                animation: float1 5s infinite;
            }

            @keyframes float2 {
                0%{transform: translate(0, 0)}
                50%{transform: translate(-5px, -5px)}
                100%{transform: translate(0, 0)}
            }

            .triangle-float2 {
                animation: float2 4s infinite;
            }

            @keyframes float3 {
                0%{transform: translate(0, 0)}
                50%{transform: translate(0, -10px)}
                100%{transform: translate(0, 0)}
            }

            .triangle-float3 {
                animation: float3 6s infinite;
            }
        </style><style class="darkreader darkreader--sync" media="screen"></style></defs></svg>